<?xml version="1.0" encoding="UTF-8"?>
<svg xmlns="http://www.w3.org/2000/svg" xmlns:xlink="http://www.w3.org/1999/xlink" width="3750" height="1875" viewBox="0 0 3750 1875">
<rect x="-375" y="-187.5" width="4500" height="2250" fill="rgb(56.834412%, 69.726562%, 98.826599%)" fill-opacity="1"/>
<path fill-rule="nonzero" fill="rgb(100%, 100%, 100%)" fill-opacity="1" d="M 1364.140625 929.511719 C 1418.171875 922.355469 1532.910156 876.9375 1395.398438 1192.875 C 1383.359375 1191.652344 1371.949219 1190.519531 1359.488281 1189.230469 C 1036 1167.644531 886.007812 1245.226562 660.621094 1205.359375 C 1147.511719 1177.199219 933.945312 853.980469 1149.828125 1054.835938 C 1243.558594 1006.363281 1306.070312 937.203125 1364.140625 929.511719 Z M 1395.398438 1192.875 C 1405.058594 1193.859375 1414.828125 1194.859375 1424.210938 1195.800781 C 1403.019531 1222.277344 1379.851562 1252.011719 1354.109375 1286 C 1368.980469 1253.148438 1382.511719 1222.492188 1395.398438 1192.875 Z M 1424.210938 1195.800781 C 1656.289062 905.894531 1628.691406 1045.007812 1617.53125 1156.976562 C 1711.269531 973.070312 1789.691406 903.957031 1858.070312 910.214844 L 1858.070312 1233.242188 C 1762.839844 1226.867188 1623.890625 1215.84375 1424.210938 1195.800781 Z M 1424.210938 1195.800781 "/>
<path fill-rule="nonzero" fill="rgb(30.200195%, 40.795898%, 17.259216%)" fill-opacity="1" d="M 1537.558594 0 C 1468.820312 27 1418.570312 -8.851562 1322.519531 110.988281 C 1266.558594 50.78125 1212.839844 46.410156 1162.980469 138.730469 C 1117.519531 82.429688 1050.871094 110.859375 968.75 201.160156 C 934.507812 190.820312 903.523438 189.621094 899.386719 263.589844 C 830.746094 297.03125 801.738281 217.410156 739.839844 312.148438 L 878.574219 367.640625 C 883.261719 512.558594 995.171875 487.660156 1051.988281 423.140625 C 1061.449219 445.941406 1061.53125 482.828125 1093.621094 471.691406 C 963.027344 677 1270.058594 607.359375 1364.140625 575.738281 L 1419.640625 638.179688 C 1274.941406 605.429688 1300.511719 698.140625 1260.101562 742.21875 C 1173.109375 715.519531 1165.71875 759.558594 1128.289062 776.910156 C 1183.460938 783.511719 1238.761719 790.019531 1246.21875 832.398438 C 1255.210938 912.410156 1314.558594 913.292969 1364.140625 929.511719 C 1394.96875 1099.027344 1505.761719 1084.003906 1613.871094 1075.183594 C 1634.808594 1124.941406 1663.519531 1112.675781 1690.171875 1116.808594 C 1745.578125 1178.292969 1658.160156 1300.933594 1830.890625 1308.808594 C 1795.378906 1375.1875 1821.101562 1387.140625 1838.308594 1406.648438 C 1840.96875 1357.453125 1880.660156 1345.289062 1912.140625 1324.90625 C 1902.03125 1422.308594 1927.960938 1411.566406 1946.828125 1422.023438 C 1864.929688 1575.261719 2000.261719 1486.542969 2030.070312 1512.203125 C 2135.121094 1581.742188 2178.878906 1551.6875 2238.171875 1546.878906 C 2303.828125 1607.171875 2357.898438 1592.109375 2411.589844 1574.625 C 2451.128906 1680.078125 2481.300781 1635.628906 2508.699219 1546.878906 C 2543.378906 1616.027344 2578.070312 1603.53125 2612.75 1602.375 C 2621.890625 1554.964844 2649.390625 1547.941406 2689.058594 1567.695312 C 2756.71875 1600.667969 2748.039062 1557.300781 2772.300781 1546.878906 C 2820.5 1608.984375 2861.71875 1573.371094 2904.089844 1553.820312 C 2940.75 1591.355469 2970.378906 1544.566406 3001.210938 1512.203125 C 2988.171875 1649.402344 3031.011719 1598.628906 3084.449219 1512.203125 C 3162.910156 1628.871094 3197.359375 1650.917969 3153.808594 1505.261719 C 3234.058594 1566.203125 3284.070312 1526.34375 3348.039062 1533.011719 C 3355.269531 1592.039062 3435.878906 1522.660156 3486.769531 1505.261719 C 3540.78125 1584.464844 3661.929688 1551.777344 3750 1574.203125 L 3750 0 Z M 1537.558594 0 "/>
<path fill-rule="nonzero" fill="rgb(22.75238%, 30.589294%, 12.939453%)" fill-opacity="1" d="M 3348.039062 1533.011719 C 3348.5 1536.699219 3349.230469 1539.890625 3350.230469 1542.621094 C 3351.230469 1545.351562 3352.5 1547.621094 3353.988281 1549.480469 C 3355.488281 1551.339844 3357.21875 1552.785156 3359.160156 1553.863281 C 3361.109375 1554.9375 3363.269531 1555.640625 3365.609375 1556.023438 C 3367.949219 1556.40625 3370.480469 1556.460938 3373.171875 1556.238281 C 3375.859375 1556.011719 3378.699219 1555.503906 3381.691406 1554.761719 C 3384.679688 1554.015625 3387.800781 1553.039062 3391.03125 1551.863281 C 3394.261719 1550.6875 3397.601562 1549.320312 3401.03125 1547.800781 C 3407.878906 1544.765625 3415.078125 1541.128906 3422.410156 1537.25 C 3429.75 1533.375 3437.21875 1529.253906 3444.640625 1525.238281 C 3452.050781 1521.226562 3459.410156 1517.320312 3466.5 1513.871094 C 3470.039062 1512.148438 3473.519531 1510.542969 3476.910156 1509.09375 C 3480.289062 1507.644531 3483.589844 1506.351562 3486.78125 1505.265625 C 3490.148438 1510.214844 3493.789062 1514.730469 3497.660156 1518.847656 C 3501.539062 1522.960938 3505.648438 1526.679688 3509.980469 1530.046875 C 3514.308594 1533.410156 3518.851562 1536.421875 3523.570312 1539.117188 C 3528.308594 1541.8125 3533.21875 1544.191406 3538.308594 1546.296875 C 3543.390625 1548.402344 3548.628906 1550.238281 3554.019531 1551.835938 C 3559.410156 1553.433594 3564.929688 1554.796875 3570.570312 1555.96875 C 3576.21875 1557.140625 3581.96875 1558.121094 3587.820312 1558.949219 C 3593.671875 1559.78125 3599.609375 1560.460938 3605.609375 1561.027344 C 3617.628906 1562.160156 3629.898438 1562.851562 3642.25 1563.421875 C 3654.601562 1563.996094 3667.019531 1564.449219 3679.308594 1565.113281 C 3691.601562 1565.773438 3703.769531 1566.644531 3715.621094 1568.050781 C 3721.539062 1568.753906 3727.378906 1569.589844 3733.121094 1570.601562 C 3738.859375 1571.613281 3744.5 1572.804688 3750 1574.203125 L 3750 754.941406 C 3744.949219 745.988281 3728.03125 715.941406 3728.03125 715.941406 L 3652.519531 597.628906 L 3540.671875 567.75 L 3516.589844 680.691406 C 3482.199219 631.25 3455.601562 601.320312 3433.039062 581.46875 C 3456.070312 611.238281 3469.578125 644.621094 3472.429688 674.109375 C 3509.871094 678.480469 3525.5 689.839844 3449.660156 741.929688 C 3468.011719 727.640625 3475.199219 702.710938 3472.429688 674.109375 C 3441.25 670.480469 3394.949219 671.699219 3373.660156 658.339844 C 3386.28125 704.550781 3397.28125 729.941406 3402.800781 740.769531 C 3393.441406 726.75 3365.171875 691.519531 3305.160156 653.019531 C 3354.511719 748.070312 3233.539062 696.320312 3186.511719 715.941406 C 3175.648438 765.351562 3051.410156 823.148438 3156.789062 863.949219 C 2925.550781 873.378906 3066.339844 861.5 3383.191406 970.160156 C 3438.390625 1088.316406 3499.980469 1053.476562 3559.378906 1070.847656 C 3535.050781 1129.859375 3594.898438 1132.746094 3619.789062 1158.941406 C 3641.570312 1172.847656 3713.730469 1182.4375 3584.550781 1209.285156 C 3650.058594 1219.332031 3677.441406 1242.082031 3660.058594 1279.757812 C 3727.480469 1284.261719 3695.261719 1345.710938 3705.378906 1382.957031 C 3666.300781 1383.679688 3628.210938 1384.863281 3613.269531 1396.890625 C 3619.480469 1410.730469 3627.351562 1429.847656 3637.410156 1455.953125 C 3604.441406 1424.582031 3600.769531 1406.949219 3613.269531 1396.890625 C 3575.769531 1313.355469 3600.738281 1428.953125 3597.140625 1453.4375 C 3540.308594 1404.992188 3528.589844 1430.351562 3521.628906 1463.507812 C 3480.53125 1476.890625 3423.648438 1516.609375 3420.941406 1466.023438 C 3405.878906 1499.648438 3389.488281 1525.738281 3348.039062 1533.011719 Z M 3348.039062 1533.011719 "/>
<path fill-rule="nonzero" fill="rgb(44.309998%, 59.959412%, 25.488281%)" fill-opacity="1" d="M 2050.488281 276.988281 C 2050.488281 276.988281 2099.121094 343.300781 2112.378906 318.25 C 2125.640625 293.199219 2149.21875 222.46875 2149.21875 222.46875 C 2193.910156 297.570312 2238.609375 257.851562 2283.308594 213.628906 C 2328 253.710938 2372.699219 234.261719 2417.390625 244.570312 C 2425.910156 277.070312 2418.589844 313.328125 2505.808594 327.089844 C 2526.859375 374.71875 2586.488281 389.289062 2632.53125 415.5 L 2432.128906 391.929688 C 2427.890625 354.421875 2398.460938 337.660156 2327.511719 355.089844 C 2327.511719 355.089844 2367.300781 436.128906 2292.148438 396.339844 C 2217 356.558594 2212.578125 346.25 2212.578125 346.25 C 2212.441406 346.371094 2016.25 356.128906 2050.488281 276.988281 Z M 2050.488281 276.988281 "/>
<path fill-rule="nonzero" fill="rgb(72.459412%, 43.138123%, 19.993591%)" fill-opacity="1" d="M 3181.308594 106.128906 C 3179.5 106.269531 3177.820312 107.109375 3176.640625 108.480469 L 3101.078125 196.179688 L 3107.679688 247.539062 L 3029.488281 345.441406 C 3028.140625 347.148438 3027.699219 349.410156 3028.289062 351.5 L 2908.359375 384.578125 L 2842.949219 397.671875 L 2837.539062 400.109375 L 2839.859375 343.878906 L 2897.921875 277.710938 C 2899.121094 276.351562 2899.730469 274.558594 2899.609375 272.75 C 2899.480469 270.929688 2898.648438 269.238281 2897.269531 268.039062 C 2895.910156 266.851562 2894.140625 266.25 2892.339844 266.359375 C 2890.519531 266.480469 2888.828125 267.320312 2887.640625 268.679688 L 2845.511719 316.730469 L 2866.03125 223.371094 C 2866.839844 219.679688 2864.511719 216.039062 2860.820312 215.230469 C 2859.050781 214.839844 2857.199219 215.160156 2855.671875 216.140625 C 2854.140625 217.121094 2853.070312 218.660156 2852.679688 220.429688 L 2826.828125 338.03125 L 2826.398438 338.519531 L 2826.289062 341.03125 C 2826.289062 341.039062 2826.289062 341.058594 2826.289062 341.070312 L 2823.609375 406.378906 L 2755.730469 436.929688 L 2725.199219 484.890625 L 2700.328125 460.980469 L 2655.679688 377.679688 L 2676.371094 322.160156 L 2725.371094 295.929688 C 2728.691406 294.148438 2729.949219 290.019531 2728.179688 286.691406 C 2727.328125 285.089844 2725.878906 283.890625 2724.140625 283.351562 C 2723.71875 283.230469 2723.269531 283.140625 2722.828125 283.101562 C 2721.480469 282.96875 2720.128906 283.25 2718.929688 283.890625 L 2665.371094 312.539062 L 2651.109375 350.820312 L 2640.539062 278.648438 L 2628.359375 245.78125 C 2627.039062 242.238281 2623.109375 240.441406 2619.570312 241.75 C 2616.03125 243.058594 2614.230469 246.988281 2615.539062 250.53125 L 2627.210938 282.070312 L 2641.601562 380.371094 L 2668.28125 430.160156 L 2618.039062 381.851562 L 2546.609375 256.140625 L 2553.589844 168.761719 C 2553.890625 165 2551.089844 161.699219 2547.328125 161.390625 C 2545.519531 161.25 2543.730469 161.820312 2542.351562 163 C 2540.96875 164.179688 2540.109375 165.859375 2539.960938 167.671875 L 2532.640625 259.238281 L 2553.800781 296.460938 L 2389.410156 184 L 2533.320312 310.460938 L 2576.929688 406.390625 L 2677.230469 493.609375 L 2681.589844 532.859375 L 2755.230469 610.589844 L 2746.078125 615.710938 L 2642.339844 615.710938 L 2507.160156 550.300781 L 2310.921875 432.558594 L 2437.378906 563.390625 L 2635.050781 668.269531 L 2482.410156 652.839844 L 2410.070312 634.761719 L 2259.109375 677.890625 C 2257.359375 678.390625 2255.878906 679.558594 2255 681.140625 C 2254.121094 682.730469 2253.898438 684.609375 2254.410156 686.359375 C 2254.910156 688.101562 2256.078125 689.570312 2257.671875 690.441406 C 2259.261719 691.320312 2261.128906 691.53125 2262.878906 691.03125 L 2410.308594 648.910156 L 2480.058594 666.351562 L 2652.519531 683.789062 L 2667.289062 675.519531 L 2821.140625 663.679688 L 2877.828125 711.648438 L 3122.039062 777.058594 L 3156.789062 863.949219 L 3083.25 879.480469 L 3011.28125 920.3125 C 3008 922.179688 3006.851562 926.351562 3008.710938 929.632812 C 3009.601562 931.214844 3011.089844 932.375 3012.828125 932.859375 C 3014.578125 933.347656 3016.449219 933.117188 3018.03125 932.226562 L 3088.128906 892.4375 L 3161.949219 876.851562 L 3165.640625 886.085938 C 3343.839844 866.191406 3374.621094 926.710938 3470.898438 951.5 L 3148.199219 942.773438 L 3039.179688 1034.351562 L 2930.160156 1034.351562 L 2888.5 1059.988281 C 2867.75 1057.921875 2850.070312 1056.132812 2848.511719 1055.972656 L 2786.789062 1003.609375 C 2783.921875 1001.160156 2779.609375 1001.503906 2777.160156 1004.378906 C 2775.980469 1005.761719 2775.410156 1007.558594 2775.558594 1009.367188 C 2775.699219 1011.175781 2776.570312 1012.851562 2777.949219 1014.023438 L 2842.929688 1069.164062 L 2845.039062 1069.382812 C 2845.039062 1069.382812 2855.539062 1070.433594 2869.289062 1071.804688 L 2816.78125 1104.125 L 2703.398438 1143.375 L 2629.269531 1112.851562 L 2568.210938 1121.570312 L 2498.441406 1073.601562 L 2498.441406 1104.125 L 2555.128906 1160.820312 L 2480.988281 1195.703125 L 2398.140625 1274.203125 L 2114.679688 1226.234375 L 2345.808594 1300.367188 L 2249.871094 1370.140625 L 2123.410156 1396.304688 L 2258.589844 1409.382812 L 2559.488281 1226.234375 L 2685.949219 1169.539062 L 2895.269531 1125.929688 L 2821.140625 1274.203125 C 2889.238281 1189.867188 2947.039062 1081.488281 3047.910156 1073.601562 L 3287.75 995.109375 L 3680.21875 1064.882812 L 3750 1161.234375 L 3750 522.691406 L 3584.28125 467.441406 L 3540.679688 567.738281 L 3427.289062 454.359375 L 3427.289062 511.058594 L 3553.75 628.800781 C 3581.890625 696.351562 3618.03125 765.5 3606.089844 825.03125 L 3492.710938 825.03125 L 3422.621094 815.179688 C 3398.949219 818.871094 3375.230469 806.621094 3350.148438 787.558594 L 3238.269531 652.921875 L 3230.730469 536.109375 C 3230.488281 532.339844 3227.238281 529.488281 3223.46875 529.730469 C 3219.699219 529.980469 3216.851562 533.230469 3217.089844 537 L 3224.910156 658.230469 L 3289.109375 735.480469 C 3243.339844 695.25 3191.21875 654.25 3126.390625 650.601562 L 3021.730469 659.320312 L 2986.851562 637.519531 C 2929.070312 633.871094 2873.730469 644.921875 2808.058594 593.910156 L 2768.808594 532.859375 L 2825.5 454.359375 C 2915.390625 425.230469 2967.800781 412.941406 3072.839844 361.089844 L 3106.078125 320.550781 L 3250.359375 295.851562 L 3304.550781 301.140625 L 3421.328125 269.28125 C 3424.96875 268.289062 3427.121094 264.539062 3426.140625 260.898438 C 3425.660156 259.148438 3424.511719 257.660156 3422.941406 256.75 C 3421.359375 255.851562 3419.5 255.609375 3417.75 256.089844 L 3303.371094 287.28125 L 3249.859375 282.070312 L 3119.320312 304.410156 L 3178.71875 231.960938 L 3060.058594 329.050781 L 3121.96875 251.550781 L 3115.421875 200.480469 L 3186.988281 117.441406 C 3188.179688 116.058594 3188.769531 114.269531 3188.640625 112.449219 C 3188.5 110.640625 3187.648438 108.949219 3186.269531 107.769531 C 3184.898438 106.589844 3183.109375 106 3181.308594 106.140625 Z M 3181.308594 106.128906 "/>
<path fill-rule="nonzero" fill="rgb(44.309998%, 59.959412%, 25.488281%)" fill-opacity="1" d="M 1504.070312 9.328125 C 1502.851562 9.558594 1501.640625 9.789062 1500.429688 10 C 1496.421875 10.691406 1492.441406 11.300781 1488.46875 11.878906 C 1484.5 12.449219 1480.539062 13 1476.570312 13.570312 C 1472.609375 14.128906 1468.628906 14.71875 1464.640625 15.378906 C 1462.640625 15.710938 1460.640625 16.070312 1458.628906 16.441406 C 1456.621094 16.820312 1454.601562 17.210938 1452.570312 17.648438 C 1450.539062 18.078125 1448.511719 18.550781 1446.460938 19.050781 C 1444.410156 19.550781 1442.359375 20.089844 1440.289062 20.679688 C 1438.210938 21.269531 1436.128906 21.898438 1434.019531 22.578125 C 1431.921875 23.269531 1429.808594 24 1427.671875 24.800781 C 1425.539062 25.601562 1423.378906 26.441406 1421.210938 27.371094 C 1419.039062 28.28125 1416.859375 29.269531 1414.640625 30.320312 C 1412.429688 31.378906 1410.199219 32.511719 1407.941406 33.71875 C 1405.691406 34.929688 1403.410156 36.210938 1401.109375 37.578125 C 1398.808594 38.949219 1396.480469 40.410156 1394.128906 41.960938 C 1391.769531 43.5 1389.390625 45.148438 1386.96875 46.890625 C 1384.558594 48.628906 1382.128906 50.460938 1379.648438 52.410156 C 1377.179688 54.351562 1374.679688 56.398438 1372.140625 58.558594 C 1369.609375 60.71875 1367.039062 63 1364.429688 65.390625 C 1361.828125 67.78125 1359.191406 70.28125 1356.519531 72.921875 C 1353.839844 75.558594 1351.128906 78.308594 1348.378906 81.210938 C 1345.628906 84.101562 1342.839844 87.128906 1340.011719 90.289062 C 1337.179688 93.460938 1334.308594 96.761719 1331.390625 100.210938 C 1328.480469 103.648438 1325.519531 107.238281 1322.519531 110.988281 C 1320.769531 109.109375 1319.019531 107.28125 1317.28125 105.5 C 1315.539062 103.730469 1313.800781 102.019531 1312.058594 100.359375 C 1310.320312 98.699219 1308.578125 97.101562 1306.839844 95.558594 C 1305.109375 94.011719 1303.371094 92.53125 1301.640625 91.109375 C 1299.910156 89.679688 1298.191406 88.308594 1296.460938 87.011719 C 1294.738281 85.699219 1293.011719 84.460938 1291.289062 83.28125 C 1289.570312 82.089844 1287.851562 80.980469 1286.128906 79.921875 C 1284.421875 78.859375 1282.710938 77.871094 1281 76.941406 C 1279.289062 76.011719 1277.578125 75.140625 1275.878906 74.339844 C 1274.171875 73.550781 1272.460938 72.808594 1270.769531 72.148438 C 1269.070312 71.480469 1267.371094 70.878906 1265.671875 70.351562 C 1263.980469 69.820312 1262.289062 69.359375 1260.601562 68.960938 C 1258.910156 68.570312 1257.21875 68.25 1255.539062 67.988281 C 1253.859375 67.738281 1252.171875 67.558594 1250.5 67.449219 C 1248.820312 67.339844 1247.140625 67.300781 1245.46875 67.339844 C 1243.800781 67.378906 1242.128906 67.480469 1240.460938 67.660156 C 1238.789062 67.851562 1237.128906 68.101562 1235.46875 68.429688 C 1233.808594 68.769531 1232.148438 69.179688 1230.5 69.660156 C 1228.839844 70.148438 1227.191406 70.710938 1225.550781 71.351562 C 1223.898438 71.988281 1222.25 72.710938 1220.609375 73.511719 C 1218.96875 74.308594 1217.339844 75.179688 1215.699219 76.140625 C 1214.070312 77.101562 1212.429688 78.140625 1210.808594 79.269531 C 1209.179688 80.390625 1207.558594 81.589844 1205.929688 82.871094 C 1204.308594 84.160156 1202.679688 85.53125 1201.070312 86.980469 C 1199.449219 88.441406 1197.839844 89.980469 1196.238281 91.601562 C 1194.628906 93.230469 1193.019531 94.929688 1191.421875 96.730469 C 1189.820312 98.53125 1188.21875 100.410156 1186.628906 102.390625 C 1185.039062 104.359375 1183.441406 106.421875 1181.851562 108.570312 C 1180.269531 110.71875 1178.679688 112.960938 1177.101562 115.28125 C 1175.519531 117.621094 1173.941406 120.039062 1172.371094 122.550781 C 1170.800781 125.058594 1169.230469 127.671875 1167.660156 130.359375 C 1166.101562 133.058594 1164.539062 135.851562 1162.980469 138.738281 C 1161.558594 136.980469 1160.121094 135.300781 1158.660156 133.710938 C 1157.191406 132.109375 1155.710938 130.601562 1154.210938 129.171875 C 1152.710938 127.738281 1151.179688 126.378906 1149.640625 125.109375 C 1148.101562 123.851562 1146.53125 122.660156 1144.949219 121.558594 C 1143.359375 120.441406 1141.761719 119.410156 1140.140625 118.460938 C 1138.511719 117.519531 1136.878906 116.640625 1135.210938 115.851562 C 1133.550781 115.058594 1131.859375 114.351562 1130.160156 113.710938 C 1128.460938 113.078125 1126.738281 112.519531 1125 112.039062 C 1123.261719 111.558594 1121.5 111.160156 1119.710938 110.828125 C 1117.941406 110.5 1116.140625 110.25 1114.320312 110.078125 C 1112.511719 109.910156 1110.671875 109.808594 1108.808594 109.78125 C 1106.960938 109.75 1105.089844 109.808594 1103.191406 109.941406 C 1101.308594 110.058594 1099.390625 110.269531 1097.460938 110.539062 C 1095.539062 110.808594 1093.589844 111.160156 1091.628906 111.589844 C 1089.660156 112 1087.671875 112.5 1085.671875 113.058594 C 1083.660156 113.628906 1081.648438 114.269531 1079.609375 114.980469 C 1077.570312 115.679688 1075.519531 116.46875 1073.441406 117.320312 C 1071.371094 118.171875 1069.28125 119.101562 1067.171875 120.089844 C 1065.058594 121.089844 1062.929688 122.140625 1060.789062 123.28125 C 1058.640625 124.410156 1056.480469 125.621094 1054.300781 126.890625 C 1052.128906 128.160156 1049.929688 129.488281 1047.71875 130.898438 C 1045.5 132.308594 1043.269531 133.789062 1041.03125 135.328125 C 1038.78125 136.871094 1036.519531 138.488281 1034.230469 140.160156 C 1031.960938 141.839844 1029.660156 143.589844 1027.351562 145.398438 C 1025.039062 147.210938 1022.710938 149.078125 1020.359375 151.019531 C 1018.011719 152.960938 1015.648438 154.96875 1013.269531 157.039062 C 1010.890625 159.121094 1008.5 161.25 1006.089844 163.449219 C 1003.679688 165.648438 1001.25 167.910156 998.808594 170.238281 C 996.367188 172.570312 993.90625 174.960938 991.433594 177.410156 C 988.957031 179.871094 986.46875 182.378906 983.964844 184.960938 C 981.460938 187.539062 978.941406 190.179688 976.402344 192.878906 C 973.867188 195.578125 971.316406 198.339844 968.75 201.160156 C 966.613281 200.519531 964.480469 199.910156 962.371094 199.351562 C 960.261719 198.789062 958.175781 198.28125 956.113281 197.839844 C 954.046875 197.398438 951.996094 197.03125 949.984375 196.75 C 947.972656 196.460938 945.996094 196.25 944.050781 196.148438 C 943.078125 196.101562 942.109375 196.070312 941.152344 196.070312 C 940.199219 196.070312 939.253906 196.101562 938.320312 196.148438 C 937.386719 196.210938 936.464844 196.300781 935.550781 196.410156 C 934.636719 196.53125 933.734375 196.679688 932.84375 196.859375 C 931.953125 197.039062 931.074219 197.261719 930.207031 197.511719 C 929.34375 197.761719 928.492188 198.039062 927.652344 198.359375 C 926.8125 198.679688 925.984375 199.050781 925.171875 199.441406 C 924.359375 199.839844 923.558594 200.28125 922.777344 200.761719 C 921.992188 201.238281 921.226562 201.75 920.472656 202.308594 C 919.71875 202.878906 918.984375 203.480469 918.261719 204.140625 C 917.539062 204.789062 916.832031 205.480469 916.140625 206.230469 C 915.453125 206.96875 914.773438 207.761719 914.121094 208.601562 C 913.464844 209.441406 912.832031 210.328125 912.210938 211.269531 C 911.59375 212.210938 910.992188 213.199219 910.410156 214.25 C 909.828125 215.289062 909.265625 216.390625 908.722656 217.550781 C 908.179688 218.699219 907.65625 219.910156 907.152344 221.171875 C 906.652344 222.441406 906.171875 223.761719 905.710938 225.140625 C 905.25 226.519531 904.808594 227.96875 904.390625 229.46875 C 903.972656 230.980469 903.578125 232.539062 903.203125 234.160156 C 902.832031 235.789062 902.480469 237.488281 902.152344 239.25 C 901.824219 241 901.519531 242.820312 901.238281 244.710938 C 900.960938 246.601562 900.699219 248.558594 900.46875 250.578125 C 900.238281 252.609375 900.035156 254.699219 899.855469 256.871094 C 899.675781 259.03125 899.515625 261.28125 899.386719 263.589844 C 897.242188 264.628906 895.132812 265.570312 893.066406 266.398438 C 890.996094 267.230469 888.964844 267.960938 886.96875 268.601562 C 884.96875 269.238281 883 269.789062 881.066406 270.25 C 879.132812 270.710938 877.234375 271.089844 875.367188 271.390625 C 873.496094 271.691406 871.652344 271.921875 869.839844 272.078125 C 868.027344 272.238281 866.238281 272.328125 864.476562 272.359375 C 862.71875 272.410156 860.980469 272.378906 859.269531 272.308594 C 857.558594 272.238281 855.871094 272.121094 854.203125 271.960938 C 852.535156 271.808594 850.890625 271.601562 849.265625 271.371094 C 847.636719 271.140625 846.023438 270.871094 844.433594 270.589844 C 841.246094 270.011719 838.132812 269.351562 835.0625 268.671875 C 831.992188 267.980469 828.972656 267.28125 825.984375 266.628906 C 822.992188 265.96875 820.035156 265.371094 817.089844 264.878906 C 815.613281 264.640625 814.140625 264.429688 812.671875 264.25 C 811.203125 264.078125 809.738281 263.941406 808.269531 263.859375 C 806.800781 263.78125 805.328125 263.730469 803.855469 263.75 C 802.378906 263.761719 800.90625 263.839844 799.425781 263.980469 C 797.941406 264.109375 796.453125 264.308594 794.957031 264.589844 C 793.464844 264.871094 791.957031 265.21875 790.445312 265.648438 C 788.929688 266.078125 787.40625 266.589844 785.871094 267.191406 C 784.335938 267.808594 782.792969 268.5 781.230469 269.308594 C 779.667969 270.101562 778.089844 271 776.496094 272 C 774.902344 273.011719 773.292969 274.121094 771.664062 275.359375 C 770.035156 276.589844 768.394531 277.941406 766.722656 279.421875 C 765.054688 280.898438 763.363281 282.5 761.652344 284.238281 C 759.9375 285.980469 758.207031 287.851562 756.445312 289.871094 C 754.683594 291.890625 752.894531 294.050781 751.082031 296.359375 C 749.265625 298.679688 747.421875 301.148438 745.546875 303.78125 C 743.675781 306.410156 741.773438 309.191406 739.839844 312.160156 L 878.574219 367.648438 C 878.640625 369.910156 878.746094 372.140625 878.871094 374.320312 C 878.992188 376.5 879.144531 378.640625 879.324219 380.738281 C 879.496094 382.839844 879.699219 384.910156 879.921875 386.929688 C 880.148438 388.941406 880.398438 390.921875 880.671875 392.859375 C 880.945312 394.800781 881.234375 396.699219 881.554688 398.558594 C 881.875 400.421875 882.222656 402.25 882.585938 404.039062 C 882.953125 405.820312 883.335938 407.570312 883.746094 409.269531 C 884.15625 410.980469 884.585938 412.648438 885.039062 414.28125 C 885.492188 415.910156 885.964844 417.519531 886.460938 419.070312 C 886.953125 420.628906 887.472656 422.148438 888.007812 423.640625 C 888.542969 425.121094 889.09375 426.570312 889.667969 427.980469 C 890.242188 429.390625 890.835938 430.769531 891.449219 432.109375 C 892.058594 433.449219 892.691406 434.75 893.339844 436.019531 C 893.992188 437.289062 894.664062 438.53125 895.347656 439.730469 C 896.03125 440.929688 896.734375 442.101562 897.453125 443.230469 C 898.171875 444.359375 898.90625 445.460938 899.65625 446.519531 C 900.410156 447.589844 901.175781 448.621094 901.960938 449.621094 C 902.746094 450.621094 903.546875 451.578125 904.363281 452.519531 C 905.179688 453.449219 906.007812 454.351562 906.851562 455.210938 C 907.695312 456.078125 908.558594 456.921875 909.429688 457.71875 C 910.300781 458.53125 911.1875 459.308594 912.085938 460.050781 C 912.984375 460.789062 913.902344 461.5 914.828125 462.179688 C 915.753906 462.859375 916.691406 463.511719 917.640625 464.128906 C 918.589844 464.75 919.550781 465.339844 920.523438 465.898438 C 921.496094 466.460938 922.480469 466.988281 923.476562 467.488281 C 924.472656 468 925.476562 468.46875 926.492188 468.910156 C 927.507812 469.359375 928.539062 469.769531 929.574219 470.160156 C 930.609375 470.550781 931.648438 470.910156 932.703125 471.238281 C 933.757812 471.570312 934.820312 471.871094 935.890625 472.148438 C 936.960938 472.429688 938.039062 472.679688 939.125 472.898438 C 940.214844 473.121094 941.3125 473.320312 942.414062 473.5 C 943.511719 473.660156 944.617188 473.808594 945.734375 473.929688 C 946.847656 474.058594 947.96875 474.140625 949.097656 474.210938 C 950.222656 474.28125 951.355469 474.320312 952.496094 474.351562 C 954.769531 474.390625 957.066406 474.320312 959.375 474.179688 C 961.6875 474.019531 964.011719 473.769531 966.351562 473.429688 C 968.6875 473.089844 971.035156 472.660156 973.386719 472.140625 C 975.742188 471.628906 978.101562 471.03125 980.460938 470.339844 C 982.820312 469.660156 985.183594 468.890625 987.539062 468.050781 C 989.898438 467.199219 992.25 466.28125 994.59375 465.28125 C 996.933594 464.289062 999.265625 463.210938 1001.589844 462.070312 C 1003.910156 460.929688 1006.210938 459.710938 1008.5 458.429688 C 1010.78125 457.148438 1013.050781 455.808594 1015.289062 454.398438 C 1017.539062 452.988281 1019.75 451.519531 1021.941406 449.988281 C 1024.128906 448.460938 1026.300781 446.871094 1028.421875 445.230469 C 1030.550781 443.578125 1032.640625 441.890625 1034.691406 440.140625 C 1036.75 438.390625 1038.761719 436.589844 1040.730469 434.75 C 1042.699219 432.898438 1044.628906 431.011719 1046.511719 429.070312 C 1048.390625 427.140625 1050.21875 425.160156 1051.988281 423.140625 C 1052.589844 424.570312 1053.140625 426.050781 1053.671875 427.570312 C 1054.191406 429.089844 1054.691406 430.660156 1055.179688 432.238281 C 1056.148438 435.410156 1057.058594 438.679688 1057.980469 441.921875 C 1058.898438 445.160156 1059.828125 448.390625 1060.859375 451.460938 C 1061.378906 453 1061.910156 454.519531 1062.480469 455.960938 C 1063.058594 457.421875 1063.671875 458.808594 1064.320312 460.148438 C 1064.96875 461.480469 1065.660156 462.75 1066.410156 463.941406 C 1066.789062 464.53125 1067.179688 465.109375 1067.589844 465.660156 C 1067.988281 466.210938 1068.398438 466.738281 1068.839844 467.238281 C 1069.269531 467.75 1069.730469 468.230469 1070.191406 468.679688 C 1070.660156 469.140625 1071.140625 469.570312 1071.648438 469.96875 C 1072.160156 470.371094 1072.679688 470.738281 1073.21875 471.089844 C 1073.761719 471.429688 1074.320312 471.738281 1074.910156 472.019531 C 1075.488281 472.300781 1076.101562 472.550781 1076.71875 472.769531 C 1077.351562 472.980469 1078 473.171875 1078.671875 473.308594 C 1079.351562 473.460938 1080.039062 473.570312 1080.769531 473.640625 C 1081.488281 473.710938 1082.230469 473.75 1083 473.75 C 1083.78125 473.75 1084.570312 473.699219 1085.398438 473.621094 C 1086.230469 473.53125 1087.078125 473.410156 1087.960938 473.238281 C 1088.851562 473.070312 1089.761719 472.859375 1090.699219 472.609375 C 1091.640625 472.351562 1092.609375 472.050781 1093.621094 471.699219 C 1156.789062 471.800781 1216.128906 286.910156 1250.109375 235.910156 C 1226.300781 450.621094 1268.699219 524.941406 1368.039062 298.300781 C 1392.949219 210.710938 1420.550781 490.640625 1478.691406 168.289062 C 1593.871094 233.878906 1580.5 207.109375 1511.878906 140.640625 C 1511.878906 140.640625 1553.609375 148.941406 1569.96875 146.171875 C 1589.898438 142.789062 1662.660156 -15.160156 1504.070312 9.339844 Z M 1504.070312 9.328125 "/>
<path fill-rule="nonzero" fill="rgb(44.309998%, 59.959412%, 25.488281%)" fill-opacity="1" d="M 1419.640625 638.179688 C 1415.121094 637.148438 1410.761719 636.25 1406.570312 635.46875 C 1402.371094 634.691406 1398.339844 634.019531 1394.449219 633.460938 C 1390.558594 632.910156 1386.820312 632.460938 1383.230469 632.121094 C 1379.648438 631.789062 1376.210938 631.558594 1372.898438 631.429688 C 1369.589844 631.308594 1366.421875 631.28125 1363.378906 631.351562 C 1360.339844 631.421875 1357.429688 631.589844 1354.648438 631.839844 C 1351.859375 632.101562 1349.199219 632.441406 1346.648438 632.871094 C 1344.101562 633.308594 1341.679688 633.820312 1339.351562 634.421875 C 1337.03125 635.019531 1334.820312 635.691406 1332.699219 636.441406 C 1330.589844 637.199219 1328.578125 638.019531 1326.660156 638.921875 C 1324.75 639.820312 1322.921875 640.78125 1321.191406 641.808594 C 1319.449219 642.839844 1317.800781 643.929688 1316.230469 645.078125 C 1314.660156 646.230469 1313.171875 647.449219 1311.75 648.710938 C 1310.339844 649.980469 1308.988281 651.289062 1307.710938 652.660156 C 1306.429688 654.019531 1305.21875 655.441406 1304.070312 656.890625 C 1302.910156 658.351562 1301.808594 659.851562 1300.769531 661.390625 C 1299.71875 662.929688 1298.71875 664.5 1297.769531 666.109375 C 1296.820312 667.710938 1295.910156 669.351562 1295.039062 671.019531 C 1294.160156 672.679688 1293.328125 674.378906 1292.519531 676.089844 C 1291.710938 677.808594 1290.941406 679.539062 1290.191406 681.289062 C 1288.679688 684.800781 1287.25 688.371094 1285.859375 691.960938 C 1284.46875 695.558594 1283.121094 699.171875 1281.730469 702.769531 C 1280.339844 706.359375 1278.929688 709.941406 1277.429688 713.449219 C 1276.679688 715.199219 1275.910156 716.941406 1275.109375 718.660156 C 1274.308594 720.378906 1273.488281 722.089844 1272.628906 723.761719 C 1271.761719 725.429688 1270.859375 727.070312 1269.921875 728.691406 C 1268.980469 730.308594 1267.988281 731.878906 1266.960938 733.429688 C 1265.921875 734.980469 1264.839844 736.488281 1263.699219 737.960938 C 1262.558594 739.429688 1261.359375 740.851562 1260.101562 742.230469 C 1257.378906 741.390625 1254.730469 740.628906 1252.171875 739.929688 C 1249.601562 739.230469 1247.109375 738.589844 1244.691406 738.019531 C 1242.269531 737.449219 1239.921875 736.949219 1237.640625 736.5 C 1235.359375 736.058594 1233.140625 735.671875 1230.988281 735.339844 C 1228.839844 735.011719 1226.761719 734.730469 1224.730469 734.519531 C 1222.710938 734.300781 1220.75 734.140625 1218.839844 734.019531 C 1216.929688 733.910156 1215.089844 733.851562 1213.289062 733.839844 C 1211.5 733.820312 1209.761719 733.851562 1208.070312 733.929688 C 1206.378906 734.019531 1204.75 734.140625 1203.160156 734.308594 C 1201.558594 734.480469 1200.019531 734.691406 1198.519531 734.941406 C 1197.019531 735.191406 1195.570312 735.480469 1194.148438 735.808594 C 1192.738281 736.128906 1191.371094 736.488281 1190.039062 736.890625 C 1188.699219 737.28125 1187.398438 737.710938 1186.140625 738.179688 C 1184.878906 738.628906 1183.648438 739.121094 1182.449219 739.640625 C 1181.25 740.148438 1180.089844 740.699219 1178.949219 741.269531 C 1177.808594 741.839844 1176.699219 742.429688 1175.609375 743.050781 C 1173.441406 744.28125 1171.359375 745.589844 1169.351562 746.96875 C 1167.339844 748.351562 1165.398438 749.789062 1163.511719 751.269531 C 1161.609375 752.75 1159.761719 754.269531 1157.929688 755.800781 C 1156.089844 757.328125 1154.269531 758.878906 1152.441406 760.421875 C 1150.621094 761.949219 1148.769531 763.480469 1146.898438 764.96875 C 1145.019531 766.46875 1143.109375 767.929688 1141.128906 769.339844 C 1139.160156 770.75 1137.121094 772.101562 1134.980469 773.371094 C 1133.921875 774 1132.839844 774.609375 1131.71875 775.210938 C 1130.609375 775.800781 1129.460938 776.371094 1128.289062 776.910156 C 1135.191406 777.730469 1142.089844 778.558594 1148.898438 779.449219 C 1152.300781 779.898438 1155.679688 780.359375 1159.019531 780.851562 C 1162.371094 781.339844 1165.679688 781.859375 1168.941406 782.410156 C 1172.210938 782.960938 1175.429688 783.53125 1178.589844 784.160156 C 1181.75 784.789062 1184.851562 785.46875 1187.890625 786.191406 C 1190.921875 786.921875 1193.878906 787.691406 1196.761719 788.53125 C 1199.640625 789.371094 1202.441406 790.269531 1205.148438 791.238281 C 1207.851562 792.210938 1210.46875 793.238281 1212.980469 794.359375 C 1214.230469 794.921875 1215.460938 795.5 1216.660156 796.101562 C 1217.859375 796.699219 1219.03125 797.320312 1220.179688 797.960938 C 1221.320312 798.601562 1222.429688 799.261719 1223.519531 799.949219 C 1224.601562 800.640625 1225.660156 801.339844 1226.679688 802.078125 C 1227.691406 802.808594 1228.691406 803.570312 1229.640625 804.351562 C 1230.601562 805.128906 1231.519531 805.949219 1232.410156 806.78125 C 1233.289062 807.621094 1234.140625 808.46875 1234.960938 809.359375 C 1235.769531 810.25 1236.558594 811.160156 1237.300781 812.109375 C 1238.039062 813.058594 1238.738281 814.03125 1239.398438 815.03125 C 1240.058594 816.03125 1240.691406 817.058594 1241.269531 818.121094 C 1241.859375 819.179688 1242.398438 820.28125 1242.898438 821.398438 C 1243.398438 822.519531 1243.859375 823.679688 1244.269531 824.871094 C 1244.679688 826.058594 1245.050781 827.269531 1245.378906 828.53125 C 1245.699219 829.78125 1245.980469 831.078125 1246.21875 832.398438 C 1246.5 834.898438 1246.828125 837.320312 1247.210938 839.671875 C 1247.28125 840.058594 1247.351562 840.398438 1247.410156 840.78125 C 1278.230469 857.28125 1294.230469 901.558594 1360.808594 851 C 1382.488281 865.421875 1375.871094 896.003906 1364.140625 929.511719 L 1404.269531 883.597656 C 1403.601562 820.46875 1449.871094 866.871094 1474.890625 863.679688 C 1518.191406 850.148438 1551.070312 820.988281 1565.441406 764.078125 C 1583.140625 802.019531 1598.378906 848.621094 1625.210938 854.621094 C 1614.570312 786.03125 1637.191406 750.710938 1654.179688 709.75 L 1715.75 756.839844 C 1743.601562 731.480469 1747.351562 706.121094 1746.539062 680.769531 C 1780.03125 681.539062 1778.398438 735 1784.570312 776.75 C 1859.878906 756.960938 1967.378906 774.71875 1962.050781 660.851562 C 2023.230469 662.269531 2044.179688 634.429688 2052.589844 597.46875 C 2089.25 563.128906 2137.898438 555.800781 2193.851562 564.871094 C 2156.570312 537.460938 2128.53125 487.910156 2068.890625 514.160156 C 2039.308594 524.941406 2009.730469 499.558594 1980.160156 409.128906 C 1915.78125 536.5 1842.089844 477.808594 1768.269531 416.371094 C 1728.71875 505.878906 1685.699219 571.230469 1627.019531 526.839844 C 1560.871094 579.441406 1509.691406 602.121094 1482.128906 577.539062 Z M 1419.640625 638.179688 "/>
<path fill-rule="nonzero" fill="rgb(44.309998%, 59.959412%, 25.488281%)" fill-opacity="1" d="M 1767.558594 1146.011719 L 1774.21875 1092.699219 L 1885.851562 1026.058594 L 1905.839844 1037.71875 C 1961.929688 961.417969 2018.019531 968.292969 2074.109375 954.417969 L 2084.109375 862.78125 C 2084.109375 862.78125 2157.410156 971.078125 2194.070312 936.089844 C 2230.71875 901.105469 2229.058594 902.769531 2229.058594 902.769531 L 2285.699219 871.109375 C 2285.699219 871.109375 2269.039062 961.082031 2250.710938 957.75 C 2232.390625 954.417969 2157.410156 877.78125 2120.761719 944.421875 C 2084.109375 1011.0625 2110.96875 1069.824219 2067.449219 1052.714844 C 2023.230469 1035.335938 1936.929688 1075.835938 1930.828125 1127.6875 C 1930.828125 1127.6875 1830.871094 1137.683594 1830.871094 1127.6875 C 1830.871094 1117.691406 1850.859375 1069.375 1850.859375 1069.375 C 1850.859375 1069.375 1774.21875 1109.359375 1767.558594 1146.011719 Z M 1767.558594 1146.011719 "/>
<path fill-rule="nonzero" fill="rgb(44.309998%, 59.959412%, 25.488281%)" fill-opacity="1" d="M 2428.699219 934.660156 L 2650.039062 837.691406 L 2671.109375 896.714844 C 2671.109375 896.714844 2812.351562 782.890625 2818.671875 822.941406 C 2825 862.988281 2736.460938 968.386719 2717.488281 949.414062 C 2698.519531 930.445312 2698.519531 924.121094 2698.519531 924.121094 C 2714.859375 935.296875 2682.648438 1001.332031 2603.660156 932.550781 C 2571.410156 904.476562 2477.808594 1001.242188 2491.941406 892.5 C 2496.359375 858.46875 2428.699219 934.660156 2428.699219 934.660156 Z M 2428.699219 934.660156 "/>
<path fill-rule="nonzero" fill="rgb(44.309998%, 59.959412%, 25.488281%)" fill-opacity="1" d="M 1946.828125 1422.023438 C 1944.269531 1426.8125 1941.921875 1431.359375 1939.769531 1435.6875 C 1938.699219 1437.851562 1937.679688 1439.960938 1936.710938 1442.011719 C 1935.738281 1444.0625 1934.808594 1446.058594 1933.941406 1448.003906 C 1933.058594 1449.945312 1932.230469 1451.839844 1931.449219 1453.675781 C 1930.671875 1455.515625 1929.941406 1457.296875 1929.25 1459.03125 C 1928.570312 1460.765625 1927.921875 1462.449219 1927.320312 1464.085938 C 1926.730469 1465.71875 1926.179688 1467.304688 1925.660156 1468.839844 C 1925.160156 1470.375 1924.691406 1471.863281 1924.269531 1473.304688 C 1923.839844 1474.746094 1923.460938 1476.140625 1923.109375 1477.488281 C 1922.769531 1478.835938 1922.46875 1480.144531 1922.210938 1481.402344 C 1921.949219 1482.660156 1921.71875 1483.875 1921.539062 1485.046875 C 1921.359375 1486.21875 1921.210938 1487.351562 1921.101562 1488.441406 C 1920.988281 1489.527344 1920.929688 1490.578125 1920.890625 1491.585938 C 1920.851562 1492.589844 1920.851562 1493.554688 1920.878906 1494.480469 C 1920.929688 1495.410156 1920.988281 1496.300781 1921.089844 1497.152344 C 1921.179688 1498.003906 1921.328125 1498.816406 1921.5 1499.597656 C 1921.671875 1500.375 1921.859375 1501.121094 1922.089844 1501.828125 C 1922.320312 1502.539062 1922.589844 1503.210938 1922.878906 1503.851562 C 1923.171875 1504.488281 1923.488281 1505.097656 1923.839844 1505.671875 C 1924.191406 1506.25 1924.558594 1506.792969 1924.96875 1507.304688 C 1925.378906 1507.816406 1925.808594 1508.300781 1926.269531 1508.753906 C 1926.730469 1509.207031 1927.210938 1509.628906 1927.71875 1510.027344 C 1928.230469 1510.421875 1928.761719 1510.792969 1929.308594 1511.132812 C 1929.871094 1511.476562 1930.449219 1511.789062 1931.050781 1512.082031 C 1931.660156 1512.371094 1932.289062 1512.628906 1932.929688 1512.871094 C 1933.578125 1513.113281 1934.25 1513.335938 1934.929688 1513.53125 C 1935.621094 1513.726562 1936.320312 1513.898438 1937.039062 1514.050781 C 1937.769531 1514.203125 1938.519531 1514.335938 1939.28125 1514.445312 C 1940.039062 1514.554688 1940.808594 1514.648438 1941.609375 1514.722656 C 1943.191406 1514.871094 1944.859375 1514.945312 1946.558594 1514.957031 C 1948.269531 1514.964844 1950.019531 1514.914062 1951.828125 1514.816406 C 1953.640625 1514.71875 1955.488281 1514.554688 1957.378906 1514.363281 C 1959.269531 1514.167969 1961.179688 1513.933594 1963.128906 1513.671875 C 1965.078125 1513.40625 1967.050781 1513.105469 1969.039062 1512.792969 C 1973.011719 1512.167969 1977.039062 1511.46875 1981.058594 1510.78125 C 1985.070312 1510.089844 1989.070312 1509.414062 1992.96875 1508.835938 C 1994.921875 1508.546875 1996.851562 1508.28125 1998.738281 1508.050781 C 2000.628906 1507.824219 2002.488281 1507.628906 2004.300781 1507.480469 C 2006.109375 1507.332031 2007.890625 1507.234375 2009.601562 1507.191406 C 2011.320312 1507.148438 2012.980469 1507.164062 2014.570312 1507.246094 C 2016.171875 1507.328125 2017.710938 1507.472656 2019.171875 1507.703125 C 2019.898438 1507.8125 2020.621094 1507.953125 2021.308594 1508.105469 C 2022 1508.261719 2022.671875 1508.4375 2023.320312 1508.636719 C 2023.96875 1508.835938 2024.609375 1509.0625 2025.21875 1509.308594 C 2025.820312 1509.554688 2026.410156 1509.820312 2026.980469 1510.113281 C 2027.539062 1510.410156 2028.078125 1510.726562 2028.589844 1511.074219 C 2029.109375 1511.421875 2029.609375 1511.800781 2030.070312 1512.199219 C 2033.351562 1514.371094 2036.578125 1516.449219 2039.738281 1518.429688 C 2042.910156 1520.414062 2046.019531 1522.304688 2049.070312 1524.105469 C 2052.121094 1525.90625 2055.121094 1527.609375 2058.058594 1529.234375 C 2061.011719 1530.859375 2063.898438 1532.398438 2066.738281 1533.855469 C 2069.578125 1535.3125 2072.371094 1536.6875 2075.109375 1537.980469 C 2077.859375 1539.277344 2080.558594 1540.492188 2083.199219 1541.636719 C 2085.851562 1542.777344 2088.449219 1543.84375 2091.011719 1544.84375 C 2093.570312 1545.839844 2096.089844 1546.773438 2098.558594 1547.632812 C 2101.039062 1548.496094 2103.480469 1549.285156 2105.871094 1550.015625 C 2108.269531 1550.746094 2110.621094 1551.417969 2112.941406 1552.027344 C 2115.261719 1552.636719 2117.550781 1553.1875 2119.800781 1553.683594 C 2122.050781 1554.175781 2124.261719 1554.609375 2126.449219 1554.996094 C 2128.628906 1555.382812 2130.78125 1555.722656 2132.898438 1556.011719 C 2135.03125 1556.300781 2137.121094 1556.535156 2139.179688 1556.734375 C 2141.25 1556.929688 2143.289062 1557.085938 2145.308594 1557.199219 C 2147.320312 1557.308594 2149.308594 1557.382812 2151.28125 1557.417969 C 2153.25 1557.460938 2155.191406 1557.445312 2157.121094 1557.417969 C 2159.039062 1557.390625 2160.949219 1557.324219 2162.828125 1557.230469 C 2164.71875 1557.132812 2166.601562 1557.015625 2168.449219 1556.867188 C 2170.308594 1556.722656 2172.140625 1556.546875 2173.96875 1556.355469 C 2177.621094 1555.964844 2181.230469 1555.492188 2184.789062 1554.96875 C 2188.359375 1554.445312 2191.890625 1553.867188 2195.410156 1553.265625 C 2202.449219 1552.0625 2209.441406 1550.765625 2216.519531 1549.621094 C 2220.058594 1549.046875 2223.621094 1548.511719 2227.21875 1548.042969 C 2229.019531 1547.8125 2230.828125 1547.597656 2232.660156 1547.402344 C 2234.480469 1547.207031 2236.320312 1547.027344 2238.179688 1546.878906 C 2240.230469 1548.761719 2242.261719 1550.574219 2244.289062 1552.3125 C 2246.320312 1554.050781 2248.351562 1555.722656 2250.359375 1557.324219 C 2252.359375 1558.921875 2254.359375 1560.445312 2256.351562 1561.90625 C 2258.328125 1563.371094 2260.308594 1564.765625 2262.269531 1566.097656 C 2264.238281 1567.429688 2266.199219 1568.695312 2268.148438 1569.898438 C 2270.089844 1571.105469 2272.039062 1572.246094 2273.960938 1573.324219 C 2275.890625 1574.40625 2277.808594 1575.429688 2279.71875 1576.390625 C 2281.628906 1577.355469 2283.53125 1578.265625 2285.421875 1579.113281 C 2287.320312 1579.960938 2289.199219 1580.753906 2291.070312 1581.492188 C 2292.949219 1582.234375 2294.820312 1582.914062 2296.679688 1583.550781 C 2298.539062 1584.183594 2300.390625 1584.773438 2302.230469 1585.308594 C 2304.070312 1585.84375 2305.910156 1586.328125 2307.738281 1586.765625 C 2309.570312 1587.203125 2311.390625 1587.597656 2313.210938 1587.945312 C 2315.03125 1588.292969 2316.839844 1588.589844 2318.640625 1588.847656 C 2320.441406 1589.109375 2322.230469 1589.328125 2324.019531 1589.507812 C 2325.808594 1589.683594 2327.589844 1589.816406 2329.371094 1589.917969 C 2331.148438 1590.011719 2332.921875 1590.082031 2334.679688 1590.105469 C 2336.449219 1590.132812 2338.21875 1590.121094 2339.96875 1590.078125 C 2341.71875 1590.039062 2343.46875 1589.957031 2345.21875 1589.84375 C 2346.96875 1589.734375 2348.699219 1589.597656 2350.441406 1589.429688 C 2352.179688 1589.261719 2353.910156 1589.0625 2355.628906 1588.835938 C 2357.359375 1588.609375 2359.089844 1588.355469 2360.808594 1588.078125 C 2362.519531 1587.800781 2364.238281 1587.503906 2365.949219 1587.183594 C 2367.660156 1586.859375 2369.378906 1586.507812 2371.078125 1586.144531 C 2374.488281 1585.410156 2377.890625 1584.601562 2381.269531 1583.726562 C 2384.660156 1582.851562 2388.050781 1581.910156 2391.421875 1580.929688 C 2394.789062 1579.945312 2398.160156 1578.910156 2401.519531 1577.855469 C 2404.878906 1576.800781 2408.238281 1575.71875 2411.589844 1574.625 L 2487.199219 1501.425781 C 2487.199219 1501.425781 2506.371094 1482.261719 2571.058594 1467.886719 C 2635.75 1453.511719 2633.351562 1355.28125 2633.351562 1355.28125 C 2633.351562 1355.28125 2602.199219 1407.992188 2580.640625 1429.554688 C 2559.070312 1451.117188 2520.738281 1338.507812 2520.738281 1338.507812 C 2486.359375 1384.386719 2498.980469 1469.453125 2396.160156 1458.304688 C 2312.761719 1507.703125 2245.378906 1531.726562 2238.03125 1460.699219 C 2158.738281 1483.257812 2076.570312 1514.933594 2034.390625 1419.964844 Z M 1946.828125 1422.023438 "/>
<path fill-rule="nonzero" fill="rgb(44.309998%, 59.959412%, 25.488281%)" fill-opacity="1" d="M 2693.238281 1518.199219 C 2693.238281 1518.199219 2690.851562 1424.761719 2731.578125 1424.761719 C 2772.308594 1424.761719 2832.199219 1412.78125 2844.179688 1391.21875 C 2856.160156 1369.65625 2887.308594 1338.507812 2887.308594 1338.507812 C 2887.308594 1338.507812 2913.660156 1384.03125 2856.160156 1441.53125 C 2798.660156 1499.03125 2707.621094 1455.90625 2693.238281 1518.199219 Z M 2693.238281 1518.199219 "/>
<path fill-rule="nonzero" fill="rgb(44.309998%, 59.959412%, 25.488281%)" fill-opacity="1" d="M 2932.828125 1312.15625 L 3016.679688 1264.238281 C 3080.691406 1280.84375 3101.828125 1230.109375 3122.101562 1177.988281 C 3173.210938 1251.648438 3224.320312 1200.257812 3275.441406 1149.238281 C 3275.441406 1149.238281 3289.808594 1211.527344 3253.871094 1233.09375 C 3217.929688 1254.65625 3146.058594 1343.300781 3146.058594 1343.300781 C 3146.058594 1343.300781 2978.351562 1285.800781 2932.828125 1312.15625 Z M 2932.828125 1312.15625 "/>
<path fill-rule="nonzero" fill="rgb(22.75238%, 30.589294%, 12.939453%)" fill-opacity="1" d="M 3433.039062 581.46875 C 3404.820312 545 3362.390625 514 3307.75 502.5 C 3355.171875 542.960938 3384.839844 539.070312 3433.039062 581.46875 Z M 3433.039062 581.46875 "/>
<path fill-rule="nonzero" fill="rgb(22.75238%, 30.589294%, 12.939453%)" fill-opacity="1" d="M 3162.019531 0 C 3185.730469 27.199219 3210.449219 53.679688 3271.011719 55.089844 C 3264.511719 24.140625 3274.140625 9.308594 3317.199219 27.929688 C 3286.558594 97.960938 3258.859375 164 3349.800781 68.679688 C 3391.28125 143.480469 3414.769531 92.449219 3442.160156 68.679688 C 3493.140625 130.25 3509.160156 117.550781 3520.941406 95.851562 C 3549.320312 73.039062 3579 53.53125 3626.890625 79.550781 L 3651.351562 41.511719 C 3658.53125 67.769531 3673.878906 94.03125 3643.191406 120.289062 C 3648.171875 141.019531 3584.21875 186.070312 3664.929688 180.058594 C 3636.238281 261.410156 3548.191406 266.441406 3488.351562 307.75 C 3536.171875 296.519531 3617.859375 353.039062 3629.621094 269.710938 C 3694.160156 333.789062 3720.53125 326.308594 3750 324.640625 L 3750 0 Z M 3162.019531 0 "/>
<path fill-rule="nonzero" fill="rgb(44.309998%, 59.959412%, 25.488281%)" fill-opacity="1" d="M 971.984375 851.53125 C 882.550781 858.839844 869.992188 946.660156 780.132812 974.515625 C 780.132812 974.515625 967.0625 1028.628906 971.984375 851.53125 Z M 971.984375 851.53125 "/>
<path fill-rule="nonzero" fill="rgb(30.200195%, 40.795898%, 17.259216%)" fill-opacity="1" d="M 1852.390625 1666.019531 C 1763.269531 1675.546875 1722.148438 1745.074219 1660.539062 1789 C 1658.589844 1781.902344 1751.089844 1492 1852.390625 1666.019531 Z M 1852.390625 1666.019531 "/>
<path fill-rule="nonzero" fill="rgb(100%, 100%, 100%)" fill-opacity="1" d="M 83.441406 645.339844 C 161.40625 557.789062 239.371094 578.339844 317.335938 595.859375 C 299.625 471.460938 242.6875 297.019531 560.226562 600.359375 C 505.136719 427.441406 634.839844 607.308594 699.664062 663.328125 C 699.664062 663.328125 1063.359375 719.640625 973.097656 671.25 C 882.835938 622.851562 119.425781 694.808594 83.441406 645.339844 Z M 83.441406 645.339844 "/>
</svg>
